<mxfile host="Electron" agent="Mozilla/5.0 (X11; Linux x86_64) AppleWebKit/537.36 (KHTML, like Gecko) draw.io/24.7.8 Chrome/128.0.6613.36 Electron/32.0.1 Safari/537.36" version="24.7.8">
  <diagram name="Page-1" id="zKp2OtShajSNFsaVRXyM">
    <mxGraphModel dx="1366" dy="802" grid="1" gridSize="10" guides="1" tooltips="1" connect="1" arrows="1" fold="1" page="1" pageScale="1" pageWidth="3300" pageHeight="2339" math="0" shadow="0">
      <root>
        <mxCell id="0" />
        <mxCell id="1" parent="0" />
        <mxCell id="akacQWWAzdyubP2ZMJqk-1" value="MediaCow Touch 2 &quot;Paris&quot; - CTCL 2021-2024&lt;br style=&quot;font-size: 24px;&quot;&gt;Description: SMEC digital inputs and outputs&lt;br&gt;&lt;span style=&quot;background-color: initial;&quot;&gt;Created: September 21, 2024&lt;/span&gt;&lt;div style=&quot;font-size: 24px;&quot;&gt;Modified:&amp;nbsp;&lt;span style=&quot;background-color: initial;&quot;&gt;September 21, 2024&lt;/span&gt;&lt;/div&gt;&lt;div style=&quot;font-size: 24px;&quot;&gt;Not to scale&lt;/div&gt;" style="text;html=1;align=left;verticalAlign=top;whiteSpace=wrap;rounded=0;fontSize=24;" vertex="1" parent="1">
          <mxGeometry x="10" y="10" width="563.57" height="200" as="geometry" />
        </mxCell>
        <mxCell id="akacQWWAzdyubP2ZMJqk-4" value="SP7021&lt;div style=&quot;font-size: 24px;&quot;&gt;SMEC&lt;/div&gt;" style="rounded=0;whiteSpace=wrap;html=1;points=[[1,0,0,0,10],[1,0,0,0,20],[1,0,0,0,30],[1,0,0,0,40],[1,0,0,0,50],[1,0,0,0,60],[1,0,0,0,70],[1,0,0,0,80],[1,0,0,0,90],[1,0,0,0,100],[1,0,0,0,110],[1,0,0,0,120],[1,0,0,0,130],[1,0,0,0,140],[1,0,0,0,150],[1,0,0,0,160],[1,0,0,0,170],[1,0,0,0,180],[1,0,0,0,190],[1,0,0,0,200],[1,0,0,0,210],[1,0,0,0,220],[1,0,0,0,230],[1,0,0,0,240],[1,0,0,0,250],[1,0,0,0,260],[1,0,0,0,270],[1,0,0,0,280],[1,0,0,0,290],[1,0,0,0,300],[1,0,0,0,310],[0,0,0,0,10],[0,0,0,0,20],[0,0,0,0,30],[0,0,0,0,40],[0,0,0,0,50],[0,0,0,0,60],[0,0,0,0,70],[0,0,0,0,80],[0,0,0,0,90],[0,0,0,0,100],[0,0,0,0,110],[0,0,0,0,120],[0,0,0,0,130],[0,0,0,0,140],[0,0,0,0,150],[0,0,0,0,160],[0,0,0,0,170],[0,0,0,0,180],[0,0,0,0,190],[0,0,0,0,200],[0,0,0,0,210],[0,0,0,0,220],[0,0,0,0,230],[0,0,0,0,240],[0,0,0,0,250],[0,0,0,0,260],[0,0,0,0,270],[0,0,0,0,280],[0,0,0,0,290],[0,0,0,0,300],[0,0,0,0,310],[0,0,0,10,0],[0,0,0,20,0],[0,0,0,30,0],[0,0,0,40,0],[0,0,0,50,0],[0,0,0,60,0],[0,0,0,70,0],[0,0,0,80,0],[0,0,0,90,0],[0,0,0,100,0],[0,0,0,110,0],[0,0,0,120,0],[0,0,0,130,0],[0,0,0,140,0],[0,0,0,150,0],[0,0,0,160,0],[0,0,0,170,0],[0,0,0,180,0],[0,0,0,190,0],[0,0,0,200,0],[0,0,0,210,0],[0,0,0,220,0],[0,0,0,230,0],[0,0,0,240,0],[0,0,0,250,0],[0,0,0,260,0],[0,0,0,270,0],[0,0,0,280,0],[0,0,0,290,0],[0,0,0,300,0],[0,0,0,310,0],[0,1,0,10,0],[0,1,0,20,0],[0,1,0,30,0],[0,1,0,40,0],[0,1,0,50,0],[0,1,0,60,0],[0,1,0,70,0],[0,1,0,80,0],[0,1,0,90,0],[0,1,0,100,0],[0,1,0,110,0],[0,1,0,120,0],[0,1,0,130,0],[0,1,0,140,0],[0,1,0,150,0],[0,1,0,160,0],[0,1,0,170,0],[0,1,0,180,0],[0,1,0,190,0],[0,1,0,200,0],[0,1,0,210,0],[0,1,0,220,0],[0,1,0,230,0],[0,1,0,240,0],[0,1,0,250,0],[0,1,0,260,0],[0,1,0,270,0],[0,1,0,280,0],[0,1,0,290,0],[0,1,0,300,0],[0,1,0,310,0]];fontSize=24;" vertex="1" parent="1">
          <mxGeometry x="1200" y="840" width="320" height="320" as="geometry" />
        </mxCell>
      </root>
    </mxGraphModel>
  </diagram>
</mxfile>
